<svg width="11" height="12" viewBox="0 0 11 12" fill="none" xmlns="http://www.w3.org/2000/svg">
<path fill-rule="evenodd" clip-rule="evenodd" d="M8.23437 1.51562H10.5312C10.7732 1.51562 10.9687 1.71113 10.9687 1.95312V11.0313C10.9687 11.2732 10.7732 11.4688 10.5312 11.4688H0.46875C0.226758 11.4688 0.03125 11.2732 0.03125 11.0313V1.95312C0.03125 1.71113 0.226758 1.51562 0.46875 1.51562H2.76562V0.640625C2.76562 0.580469 2.81484 0.53125 2.875 0.53125H3.64062C3.70078 0.53125 3.75 0.580469 3.75 0.640625V1.51562H7.25V0.640625C7.25 0.580469 7.29922 0.53125 7.35937 0.53125H8.125C8.18516 0.53125 8.23437 0.580469 8.23437 0.640625V1.51562ZM1.01562 10.4844H9.98437V5.28906H1.01562V10.4844Z" fill="#2F54EB"/>
</svg>
