<svg width="150" height="38" viewBox="0 0 150 38" fill="none" xmlns="http://www.w3.org/2000/svg">
<path d="M97.2891 18.3646H102.545V21.8369H102.623C102.857 21.2944 103.207 20.7518 103.675 20.2454C104.103 19.7391 104.609 19.3412 105.193 18.9795C105.738 18.6178 106.361 18.3646 107.023 18.1476C107.646 17.9667 108.347 17.8944 109.048 17.8582C109.398 17.8582 109.788 17.9306 110.255 18.0391V22.8135C109.982 22.7773 109.671 22.7412 109.32 22.705C108.931 22.6688 108.581 22.6327 108.269 22.6327C107.257 22.6327 106.4 22.8135 105.699 23.1029C104.998 23.4284 104.414 23.8624 103.986 24.405C103.558 24.9475 103.246 25.5624 103.091 26.2858C102.896 27.0092 102.818 27.805 102.818 28.6369V37.1489H97.2891V18.3646Z" fill="#10239E"/>
<path d="M89.8436 25.7071C89.571 24.405 89.1038 23.4284 88.4419 22.7412C87.78 22.0901 86.7676 21.7646 85.4438 21.7284C84.5482 21.7284 83.8084 21.8731 83.2244 22.1624C82.6403 22.4518 82.1731 22.7773 81.8227 23.1752C81.4723 23.6093 81.2386 24.0433 81.0829 24.4773C80.9271 24.9475 80.8493 25.3454 80.8493 25.7071H89.8436ZM80.8493 28.9624C80.9271 30.6262 81.3554 31.856 82.212 32.5794C83.0297 33.339 84.2367 33.7007 85.7942 33.7007C86.8844 33.7007 87.8578 33.4475 88.6755 32.9411C89.4542 32.4347 89.9604 31.856 90.1551 31.2773H95.0221C94.2434 33.5198 93.0364 35.1475 91.44 36.0879C89.8046 37.0645 87.8578 37.5347 85.5995 37.5347C84.0031 37.5347 82.5625 37.3177 81.3165 36.8475C80.0316 36.3773 78.9414 35.69 78.0848 34.822C77.1893 33.9539 76.4884 32.9411 76.0212 31.7113C75.5539 30.5177 75.3203 29.1794 75.3203 27.7326C75.3203 26.3582 75.5539 25.0561 76.0601 23.8263C76.5273 22.6327 77.2282 21.5837 78.1627 20.7156C79.0582 19.8476 80.1484 19.1242 81.3944 18.6178C82.6404 18.1114 84.0421 17.8582 85.5995 17.8582C87.3127 17.8582 88.7923 18.1837 90.0772 18.7986C91.3232 19.4135 92.3744 20.2454 93.1921 21.2582C94.0098 22.3071 94.5938 23.5007 94.9832 24.8029C95.3336 26.1412 95.4504 27.5156 95.3725 28.9624H80.8493Z" fill="#10239E"/>
<path d="M68.5277 37.1489H62.3758L55.5195 18.3646H61.3211L65.5651 31.1326H65.643L69.8871 18.3646H75.3771L68.5277 37.1489Z" fill="#10239E"/>
<path d="M49.9823 25.7071C49.7097 24.405 49.2425 23.4284 48.5805 22.7412C47.9186 22.0901 46.9063 21.7646 45.5824 21.7284C44.6869 21.7284 43.9471 21.8731 43.3631 22.1624C42.779 22.4518 42.3118 22.7773 41.9614 23.1752C41.6109 23.6093 41.3773 24.0433 41.2216 24.4773C41.0658 24.9475 40.9879 25.3454 40.9879 25.7071H49.9823ZM40.9879 28.9624C41.0658 30.6262 41.4941 31.856 42.3507 32.5794C43.1684 33.339 44.3754 33.7007 45.9329 33.7007C47.0231 33.7007 47.9965 33.4475 48.8142 32.9411C49.5929 32.4347 50.0991 31.856 50.2937 31.2773H55.1608C54.3821 33.5198 53.175 35.1475 51.5786 36.0879C49.9433 37.0645 47.9965 37.5347 45.7382 37.5347C44.1418 37.5347 42.7011 37.3177 41.4552 36.8475C40.1703 36.3773 39.0801 35.69 38.2235 34.822C37.3279 33.9539 36.6271 32.9411 36.1598 31.7113C35.6926 30.5177 35.459 29.1794 35.459 27.7326C35.459 26.3582 35.6926 25.0561 36.1988 23.8263C36.666 22.6327 37.3669 21.5837 38.3013 20.7156C39.1969 19.8476 40.2871 19.1242 41.5331 18.6178C42.779 18.1114 44.1807 17.8582 45.7382 17.8582C47.4514 17.8582 48.931 18.1837 50.2159 18.7986C51.4618 19.4135 52.5131 20.2454 53.3308 21.2582C54.1484 22.3071 54.7325 23.5007 55.1219 24.8029C55.4723 26.1412 55.5891 27.5156 55.5112 28.9624H40.9879Z" fill="#10239E"/>
<path d="M28.0342 10.3831H33.4853V37.1489H28.0342V10.3831Z" fill="#10239E"/>
<path d="M19.7902 19.5916C19.6731 18.9467 19.4389 18.3734 19.0876 17.8359C18.6973 17.2985 18.2679 16.8327 17.7214 16.4027C17.1749 16.0085 16.5504 15.6861 15.8478 15.4711C15.1452 15.2561 14.4426 15.1486 13.7009 15.1128C12.2957 15.1128 11.1247 15.3636 10.1879 15.8652C9.21202 16.3668 8.43134 17.0118 7.84583 17.8359C7.22128 18.66 6.79191 19.5916 6.51867 20.6307C6.24543 21.7057 6.12833 22.7806 6.12833 23.8914C6.12833 24.9663 6.24543 26.0412 6.51867 27.0445C6.79191 28.0478 7.22128 28.9794 7.84583 29.7677C8.43134 30.5918 9.21202 31.2367 10.1879 31.7384C11.1247 32.24 12.2957 32.455 13.7009 32.455C15.5746 32.455 17.0188 31.9534 18.0727 30.8784C19.1266 29.8393 19.7902 28.4419 20.0244 26.722H25.9576C25.8015 28.3344 25.3721 29.7677 24.7475 31.0576C24.084 32.3475 23.2252 33.4583 22.1713 34.3541C21.0783 35.2857 19.8293 35.9665 18.424 36.4323C16.9798 36.9339 15.4184 37.1489 13.7009 37.1489C11.5541 37.1489 9.64139 36.8264 7.92389 36.1456C6.2064 35.4648 4.80118 34.5332 3.63016 33.315C2.45914 32.1325 1.56136 30.7351 0.936815 29.1227C0.312272 27.5103 0 25.7546 0 23.8914C0 21.9923 0.312272 20.2366 0.936815 18.5884C1.56136 16.9401 2.45914 15.5069 3.63016 14.2886C4.80118 13.1062 6.2064 12.1388 7.92389 11.4222C9.64139 10.7414 11.5541 10.4189 13.7009 10.3831C15.2232 10.3831 16.6675 10.598 18.0337 10.9922C19.3999 11.4222 20.6099 11.9955 21.7029 12.7837C22.7958 13.572 23.6936 14.5036 24.3962 15.6502C25.0988 16.7968 25.5282 18.1226 25.7234 19.5916H19.7902Z" fill="#10239E"/>
<path d="M144.082 12.801H148.867V17.9896H144.082V27.9044C144.082 31.2789 144.29 31.2688 144.705 31.6642C145.12 32.0595 145.951 32.2572 147.197 32.2572C147.612 32.3066 147.976 32.2572 148.391 32.2077C148.754 32.2077 149.257 31.9278 149.516 31.6642V37.0999C148.867 37.3789 148.131 37.6929 147.405 37.6929C146.626 37.7423 145.899 37.7423 145.172 37.7423C145.124 37.7423 144.302 37.7423 143.956 37.6929C143.112 37.5725 141.859 37.1246 141.08 36.6799C140.647 36.4328 139.522 35.321 139.393 34.8268C139.003 34.2091 138.787 32.9984 138.787 31.7136V17.9896H134.201V12.801H138.787V4.1532H144.082V12.801Z" fill="#10239E"/>
<path fill-rule="evenodd" clip-rule="evenodd" d="M111.358 17.9896H114.992V37.1493H120.807V17.9896H125.116L125.116 12.801H120.807L120.807 12.3562C120.807 11.3185 121.015 10.333 121.43 9.88829C121.845 9.44355 122.572 9.19647 123.61 9.19647C124.545 9.19647 125.427 9.24589 126.31 9.34472V4.1532L124.337 4.1532L122.39 4.1532C119.924 4.1532 117.978 5.35026 116.809 6.50046C115.304 7.98293 114.992 9.68778 114.992 11.9115L114.992 12.801H111.358L111.358 17.9896ZM132.644 20.2133H126.985V37.1493H132.644V20.2133Z" fill="#10239E"/>
<path d="M132.644 15.4448C132.644 16.95 131.423 18.1703 129.918 18.1703C128.413 18.1703 127.193 16.95 127.193 15.4447C127.193 13.9395 128.413 12.7192 129.918 12.7192C131.423 12.7192 132.644 13.9395 132.644 15.4448Z" fill="#40A9FF"/>
</svg>
